<?xml version="1.0" encoding="utf-8"?>
<!-- Generator: Adobe Illustrator 22.1.0, SVG Export Plug-In . SVG Version: 6.00 Build 0)  -->
<!DOCTYPE svg PUBLIC "-//W3C//DTD SVG 1.1//EN" "http://www.w3.org/Graphics/SVG/1.1/DTD/svg11.dtd">
<svg version="1.1" xmlns="http://www.w3.org/2000/svg" xmlns:xlink="http://www.w3.org/1999/xlink" x="0px" y="0px"
	 viewBox="0 0 100 100" enable-background="new 0 0 100 100" xml:space="preserve">
<g id="Layer_1">
	<g>
		<path fill="#484852" d="M71.4,65.7c-4.7,0-8.5,3.8-8.5,8.5c0,4.7,3.8,8.5,8.5,8.5s8.5-3.8,8.5-8.5C79.9,69.5,76.1,65.7,71.4,65.7z
			 M71.4,78.5c-2.4,0-4.3-1.9-4.3-4.3c0-2.3,1.9-4.3,4.3-4.3s4.3,1.9,4.3,4.3C75.6,76.6,73.7,78.5,71.4,78.5z"/>
		<path fill="#484852" d="M35.3,17.8c-8.2,0-14.9,6.7-14.9,14.9c0,8.2,6.7,14.9,14.9,14.9S50.2,41,50.2,32.7
			C50.2,24.5,43.5,17.8,35.3,17.8z M35.3,43.4c-5.9,0-10.7-4.8-10.7-10.7s4.8-10.7,10.7-10.7s10.7,4.8,10.7,10.7
			S41.2,43.4,35.3,43.4z"/>
		<path fill="#484852" d="M90.6,79.7c-0.4-0.5-0.5-1.1-0.4-1.7c0.2-1.2,0.4-2.5,0.4-3.7c0-1.2-0.1-2.5-0.4-3.7
			c-0.1-0.6,0-1.2,0.4-1.7l1.6-2c0.5-0.6,0.6-1.5,0.2-2.3l-1.8-3.7c-0.4-0.9-1.4-1.3-2.3-1.2l-2.7,0.5c-0.6,0.1-1.3,0-1.8-0.5
			c-1.9-1.6-4-2.8-6.3-3.6c-0.6-0.2-1-0.7-1.3-1.3l-0.9-2.6c-0.3-0.9-1.1-1.5-2-1.5h-4.3c-0.9,0-1.7,0.6-2,1.5l-0.9,2.6
			c-0.2,0.6-0.7,1.1-1.3,1.3c-2.3,0.8-4.4,2-6.3,3.6c-0.5,0.4-1.1,0.6-1.8,0.5l-2.7-0.5c-0.9-0.2-1.9,0.3-2.3,1.2l-1.8,3.7
			c-0.4,0.7-0.3,1.6,0.2,2.3l1.6,2c0.4,0.5,0.5,1.1,0.4,1.7c-0.2,1.2-0.4,2.5-0.4,3.7c0,1.2,0.1,2.5,0.4,3.7c0.1,0.6,0,1.2-0.4,1.7
			l-1.6,2c-0.5,0.6-0.6,1.5-0.2,2.3l1.8,3.7c0.4,0.9,1.4,1.4,2.3,1.2l2.7-0.5c0.6-0.1,1.3,0,1.8,0.5c1.9,1.6,4,2.8,6.3,3.6
			c0.6,0.2,1,0.7,1.3,1.3l0.9,2.6c0.3,0.9,1.1,1.5,2,1.5h4.3c0.9,0,1.7-0.6,2-1.5l0.9-2.6c0.2-0.6,0.7-1.1,1.3-1.3
			c2.3-0.8,4.4-2,6.3-3.6c0.5-0.4,1.1-0.6,1.8-0.5l2.7,0.5c0.9,0.2,1.9-0.3,2.3-1.2l1.8-3.7c0.4-0.7,0.3-1.6-0.2-2.3L90.6,79.7z
			 M86,71.3c0.2,0.9,0.3,1.9,0.3,2.9c0,1-0.1,1.9-0.3,2.9c-0.4,1.8,0.1,3.7,1.3,5.2l0.8,1l-0.5,1l-1-0.2c-1.9-0.4-3.9,0.1-5.4,1.4
			c-1.4,1.3-3.1,2.2-4.9,2.8c-1.8,0.6-3.3,2.1-3.9,4L72,93.4h-1.2l-0.4-1.1c-0.6-1.9-2.1-3.3-3.9-4c-1.8-0.6-3.4-1.6-4.9-2.8
			c-1.5-1.3-3.5-1.8-5.4-1.4l-1,0.2l-0.5-1l0.8-1c1.2-1.5,1.6-3.4,1.3-5.2c-0.2-0.9-0.3-1.9-0.3-2.9c0-1,0.1-1.9,0.3-2.9
			c0.4-1.8-0.1-3.7-1.3-5.2l-0.8-1l0.5-1l1,0.2c1.9,0.4,3.9-0.1,5.4-1.4c1.4-1.3,3.1-2.2,4.9-2.8c1.8-0.6,3.3-2.1,3.9-4l0.4-1.1H72
			l0.4,1.1c0.6,1.9,2.1,3.3,3.9,4c1.8,0.6,3.4,1.6,4.9,2.8c1.5,1.3,3.5,1.8,5.4,1.4l1-0.2l0.5,1l-0.8,1C86.1,67.6,85.6,69.5,86,71.3
			z"/>
		<path fill="#484852" d="M50.3,54.7l2.1,1.1c0.8,0.4,1.8,0.2,2.5-0.4l3-3c0.6-0.6,0.8-1.6,0.4-2.5l-1.1-2.1c-0.3-0.6-0.3-1.4,0-1.9
			c1.3-2.1,2.2-4.4,2.8-6.8c0.2-0.6,0.7-1.2,1.4-1.4l2.3-0.8c0.9-0.3,1.5-1.1,1.5-2v-4.3c0-0.9-0.6-1.7-1.5-2l-2.3-0.8
			c-0.7-0.2-1.2-0.8-1.4-1.4c-0.6-2.4-1.5-4.6-2.8-6.8c-0.3-0.6-0.3-1.3,0-1.9l1.1-2.1c0.4-0.8,0.2-1.8-0.4-2.5l-3-3
			c-0.6-0.6-1.6-0.8-2.5-0.4l-2.1,1.1c-0.6,0.3-1.4,0.3-1.9,0C46.2,9.5,44,8.6,41.6,8c-0.6-0.2-1.2-0.7-1.4-1.4l-0.8-2.3
			c-0.3-0.9-1.1-1.5-2-1.5h-4.3c-0.9,0-1.7,0.6-2,1.5l-0.8,2.3C30.2,7.3,29.6,7.8,29,8c-2.4,0.6-4.6,1.5-6.8,2.8
			c-0.6,0.3-1.3,0.3-1.9,0l-2.1-1.1c-0.8-0.4-1.8-0.2-2.5,0.4l-3,3c-0.6,0.6-0.8,1.6-0.4,2.5l1.1,2.1c0.3,0.6,0.3,1.4,0,1.9
			c-1.3,2.1-2.2,4.4-2.8,6.8c-0.2,0.6-0.7,1.2-1.4,1.4l-2.3,0.8c-0.9,0.3-1.5,1.1-1.5,2v4.3c0,0.9,0.6,1.7,1.5,2l2.3,0.8
			c0.7,0.2,1.2,0.8,1.4,1.4c0.6,2.4,1.5,4.6,2.8,6.8c0.3,0.6,0.3,1.3,0,1.9l-1.1,2.1c-0.4,0.8-0.2,1.8,0.4,2.5l3,3
			c0.6,0.7,1.6,0.8,2.5,0.4l2.1-1.1c0.6-0.3,1.4-0.3,1.9,0c2.1,1.3,4.4,2.2,6.8,2.8c0.6,0.2,1.2,0.7,1.4,1.4l0.8,2.3
			c0.3,0.9,1.1,1.5,2,1.5h4.3c0.9,0,1.7-0.6,2-1.5l0.8-2.3c0.2-0.7,0.8-1.2,1.4-1.4c2.4-0.6,4.6-1.5,6.8-2.8
			C48.9,54.4,49.6,54.4,50.3,54.7z M40.5,53.4c-2.1,0.5-3.7,2.1-4.4,4.1l-0.3,0.8h-1.2l-0.3-0.8c-0.7-2.1-2.3-3.6-4.4-4.1
			c-2-0.5-3.9-1.3-5.6-2.3c-1.8-1.1-4.1-1.2-6-0.2l-0.8,0.4l-0.8-0.8l0.4-0.8c1-1.9,0.9-4.2-0.2-6c-1-1.7-1.8-3.6-2.3-5.6
			c-0.5-2.1-2.1-3.7-4.1-4.4l-0.8-0.3v-1.2l0.8-0.3c2.1-0.7,3.6-2.3,4.1-4.4c0.5-2,1.3-3.9,2.3-5.6c1.1-1.8,1.2-4.1,0.2-6l-0.4-0.8
			l0.8-0.8l0.8,0.4c1.9,1,4.2,0.9,6-0.2c1.8-1,3.6-1.8,5.6-2.3c2.1-0.5,3.7-2.1,4.4-4.1l0.3-0.8h1.2L36.2,8c0.7,2.1,2.3,3.6,4.4,4.1
			c2,0.5,3.9,1.3,5.6,2.3c1.8,1.1,4.1,1.2,6,0.2l0.8-0.4l0.8,0.8l-0.4,0.8c-1,1.9-0.9,4.2,0.2,6c1,1.8,1.8,3.6,2.3,5.6
			c0.5,2.1,2.1,3.7,4.1,4.4l0.8,0.3v1.2l-0.8,0.3c-2.1,0.7-3.6,2.3-4.1,4.4c-0.5,2-1.3,3.9-2.3,5.6c-1.1,1.8-1.2,4.1-0.2,6l0.4,0.8
			l-0.8,0.8l-0.8-0.4c-1.9-1-4.2-0.9-6,0.2C44.4,52.1,42.5,52.9,40.5,53.4z"/>
	</g>
</g>
<g id="Icons">
</g>
</svg>
