<?xml version="1.0" encoding="utf-8"?>
<!-- Generator: Adobe Illustrator 22.1.0, SVG Export Plug-In . SVG Version: 6.00 Build 0)  -->
<!DOCTYPE svg PUBLIC "-//W3C//DTD SVG 1.1//EN" "http://www.w3.org/Graphics/SVG/1.1/DTD/svg11.dtd">
<svg version="1.1" xmlns="http://www.w3.org/2000/svg" xmlns:xlink="http://www.w3.org/1999/xlink" x="0px" y="0px"
	 viewBox="0 0 100 100" enable-background="new 0 0 100 100" xml:space="preserve">
<g id="Layer_1">
</g>
<g id="Icons">
	<g>
		
			<rect x="32.8" y="55.8" transform="matrix(0.7075 -0.7067 0.7067 0.7075 -28.4532 46.0708)" fill="#484852" width="17.2" height="3.2"/>
		<path fill="#484852" d="M29.4,78.1l7.3-7.4l-6-6L28.4,67l3.8,3.8l-2.8,2.8l-3.8-3.8l-6.3,6.4l6.6,6.6l-4,4l-6.7-6.6L10,85.4
			l-3.8-3.8l36.1-36.2l-1-1l-0.3-0.5c-1.5-2.6-2.3-5.6-2.3-8.7c0-6.8,4-13,10.2-15.9l1.5-0.7L49,15.7l-1.5,0.7
			c-7.3,3.4-12,10.8-12,18.8c0,3.5,0.9,6.9,2.6,10L1.8,81.6l8.3,8.3l5.2-5.2l6.7,6.6l8.5-8.5l-6.6-6.6l1.8-1.8L29.4,78.1z"/>
		<path fill="#484852" d="M94.2,6.9c-3.8-3.8-11-4.4-18.4,3c-1.7,1.7-3.1,3.5-4.3,5.3c-1.7-0.5-3.5-0.7-5.4-0.7
			c-11.4,0-20.7,9.3-20.7,20.7c0,8.1,4.7,15.1,11.5,18.5v43.7l9.9-3.9l5.4-7.7l-2.5-2.6l2.3-3.6l-2.4-3.4l2.4-3.6l-2.3-3.1l4.3-3.9
			v-8.1h-3.2v6.7l-5.4,4.9l2.6,3.6l-2.4,3.6l2.4,3.4l-2.5,3.9l2.4,2.5l-3.3,4.7l-4.6,1.8V55c1.9,0.6,3.9,0.9,6,0.9
			c11.4,0,20.7-9.3,20.7-20.7c0-8.4-5-15.6-12.2-18.9c1-1.4,2.1-2.8,3.4-4.1c5.1-5.1,10.6-6.3,13.9-3c1.5,1.5,2.3,3.5,2.1,5.6
			c-0.2,2.9-1.9,5.7-5,8.1c-0.3,0.2-0.6,0.5-0.9,0.7l-1.3,0.9l1.8,2.7l1.3-0.9c0.4-0.3,0.8-0.5,1.2-0.8c4.9-3.8,6.1-7.8,6.2-10.5
			C97.4,11.9,96.3,9,94.2,6.9z M83.6,35.2c0,9.7-7.9,17.5-17.5,17.5s-17.5-7.9-17.5-17.5s7.9-17.5,17.5-17.5c1.3,0,2.6,0.2,3.8,0.4
			c-1,2.2-1.7,4.5-1.9,6.7c-0.9,0.3-1.7,0.8-2.4,1.5c-2.6,2.6-2.6,6.7,0,9.3c1.2,1.2,2.9,1.9,4.6,1.9c1.8,0,3.4-0.7,4.6-1.9
			c2.6-2.6,2.6-6.7,0-9.3c-1-1-2.3-1.6-3.6-1.8c0.3-1.8,0.9-3.6,1.8-5.4C79.2,21.7,83.6,27.9,83.6,35.2z M67.9,28.5
			c0,0.5,0.1,0.9,0.2,1.4l0.3,1.6l3.1-0.6l-0.3-1.6c-0.1-0.5-0.2-1-0.2-1.6c0.6,0.1,1.1,0.4,1.5,0.9c1.3,1.3,1.3,3.4,0,4.7
			c-1.3,1.3-3.5,1.3-4.7,0C66.5,32,66.5,29.8,67.9,28.5C67.9,28.5,67.9,28.5,67.9,28.5z"/>
	</g>
</g>
</svg>
